<svg xmlns="http://www.w3.org/2000/svg" xmlns:xlink="http://www.w3.org/1999/xlink" width="1080" zoomAndPan="magnify" viewBox="0 0 810 809.999993" height="1080" preserveAspectRatio="xMidYMid meet" version="1.0"><defs><g/></defs><rect x="-81" width="972" fill="#ffffff" y="-80.999999" height="971.999992" fill-opacity="1"/><rect x="-81" width="972" fill="#ffffff" y="-80.999999" height="971.999992" fill-opacity="1"/><g fill="#5e17eb" fill-opacity="1"><g transform="translate(132.644497, 437.880507)"><g><path d="M 49.660156 -20.289062 C 49.660156 -16.847656 49.660156 -13.9375 49.746094 -11.203125 C 48.160156 -13.847656 46.484375 -16.496094 44.808594 -19.140625 L 16.582031 -62.800781 L 7.496094 -62.800781 L 7.496094 0 L 15.257812 0 L 15.257812 -42.515625 C 15.257812 -45.777344 15.257812 -48.691406 15.171875 -51.335938 C 16.757812 -48.777344 18.347656 -46.132812 20.023438 -43.574219 L 48.070312 0 L 57.421875 0 L 57.421875 -62.800781 L 49.660156 -62.800781 Z M 49.660156 -20.289062 "/></g></g></g><g fill="#5e17eb" fill-opacity="1"><g transform="translate(197.559919, 437.880507)"><g><path d="M 37.222656 -20.199219 C 37.222656 -9.351562 30.519531 -5.910156 24.257812 -5.910156 C 18.082031 -5.910156 15.171875 -9.261719 15.171875 -15.523438 L 15.171875 -45.515625 L 7.054688 -45.515625 L 7.054688 -13.9375 C 7.054688 -4.320312 12.964844 1.148438 22.492188 1.148438 C 29.195312 1.148438 34.664062 -1.585938 37.753906 -6.4375 L 37.753906 0 L 45.335938 0 L 45.335938 -45.515625 L 37.222656 -45.515625 Z M 37.222656 -20.199219 "/></g></g></g><g fill="#5e17eb" fill-opacity="1"><g transform="translate(249.950901, 437.880507)"><g><path d="M 22.402344 1.148438 C 34.398438 1.148438 41.457031 -4.320312 41.457031 -13.230469 C 41.457031 -19.847656 37.488281 -23.992188 28.050781 -26.109375 L 19.230469 -28.050781 C 13.847656 -29.195312 12.171875 -31.226562 12.171875 -34.136719 C 12.171875 -38.191406 15.613281 -40.132812 21.347656 -40.132812 C 27.785156 -40.132812 31.226562 -37.488281 32.105469 -32.285156 L 40.132812 -32.636719 C 38.808594 -42.164062 31.753906 -46.574219 21.609375 -46.574219 C 10.410156 -46.574219 4.675781 -41.367188 4.675781 -33.429688 C 4.675781 -26.992188 8.46875 -22.933594 17.289062 -21.082031 L 26.460938 -19.140625 C 31.226562 -18.171875 33.695312 -16.140625 33.695312 -12.523438 C 33.695312 -8.203125 30.167969 -5.378906 22.757812 -5.378906 C 15.789062 -5.378906 11.996094 -8.027344 11.203125 -14.378906 L 3.527344 -14.023438 C 4.585938 -3.882812 11.027344 1.148438 22.402344 1.148438 Z M 22.402344 1.148438 "/></g></g></g><g fill="#5e17eb" fill-opacity="1"><g transform="translate(294.492043, 437.880507)"><g><path d="M 47.191406 -5.996094 C 44.191406 -5.996094 43.222656 -6.96875 43.222656 -9.96875 L 43.222656 -32.195312 C 43.222656 -42.164062 36.695312 -46.75 25.402344 -46.75 C 13.671875 -46.75 7.234375 -41.984375 6.4375 -31.929688 L 14.464844 -31.929688 C 14.996094 -38.015625 18.257812 -40.046875 24.785156 -40.046875 C 31.84375 -40.046875 35.019531 -37.753906 35.019531 -32.988281 L 35.019531 -31.226562 C 35.019531 -29.109375 33.960938 -28.050781 31.753906 -27.785156 L 20.109375 -26.285156 C 9.085938 -24.875 4.585938 -19.582031 4.585938 -12.085938 C 4.585938 -3.703125 10.585938 1.148438 19.847656 1.148438 C 27.609375 1.148438 33.429688 -2.292969 36.339844 -6.703125 C 36.695312 -2.207031 39.339844 0 44.191406 0 L 48.511719 0 L 48.511719 -5.996094 Z M 21.347656 -5.117188 C 16.054688 -5.117188 12.613281 -7.761719 12.613281 -12.4375 C 12.613281 -16.496094 15.082031 -19.316406 21.433594 -20.289062 L 35.019531 -22.316406 L 35.019531 -15.964844 C 35.019531 -10.144531 28.667969 -5.117188 21.347656 -5.117188 Z M 21.347656 -5.117188 "/></g></g></g><g fill="#5e17eb" fill-opacity="1"><g transform="translate(344.766222, 437.880507)"><g><path d="M 22.84375 1.058594 C 34.488281 1.058594 40.75 -5.117188 40.75 -16.933594 L 40.75 -62.800781 L 32.546875 -62.800781 L 32.546875 -17.199219 C 32.546875 -9.96875 29.371094 -6.261719 22.933594 -6.261719 C 15.964844 -6.261719 12.613281 -9.96875 12.613281 -17.199219 L 12.613281 -21.433594 L 4.410156 -21.433594 L 4.410156 -16.757812 C 4.410156 -5.558594 11.203125 1.058594 22.84375 1.058594 Z M 22.84375 1.058594 "/></g></g></g><g fill="#5e17eb" fill-opacity="1"><g transform="translate(393.011799, 437.880507)"><g><path d="M 47.191406 -5.996094 C 44.191406 -5.996094 43.222656 -6.96875 43.222656 -9.96875 L 43.222656 -32.195312 C 43.222656 -42.164062 36.695312 -46.75 25.402344 -46.75 C 13.671875 -46.75 7.234375 -41.984375 6.4375 -31.929688 L 14.464844 -31.929688 C 14.996094 -38.015625 18.257812 -40.046875 24.785156 -40.046875 C 31.84375 -40.046875 35.019531 -37.753906 35.019531 -32.988281 L 35.019531 -31.226562 C 35.019531 -29.109375 33.960938 -28.050781 31.753906 -27.785156 L 20.109375 -26.285156 C 9.085938 -24.875 4.585938 -19.582031 4.585938 -12.085938 C 4.585938 -3.703125 10.585938 1.148438 19.847656 1.148438 C 27.609375 1.148438 33.429688 -2.292969 36.339844 -6.703125 C 36.695312 -2.207031 39.339844 0 44.191406 0 L 48.511719 0 L 48.511719 -5.996094 Z M 21.347656 -5.117188 C 16.054688 -5.117188 12.613281 -7.761719 12.613281 -12.4375 C 12.613281 -16.496094 15.082031 -19.316406 21.433594 -20.289062 L 35.019531 -22.316406 L 35.019531 -15.964844 C 35.019531 -10.144531 28.667969 -5.117188 21.347656 -5.117188 Z M 21.347656 -5.117188 "/></g></g></g><g fill="#5e17eb" fill-opacity="1"><g transform="translate(443.285977, 437.880507)"><g><path d="M 28.667969 -46.75 C 21.785156 -46.75 17.375 -42.867188 14.640625 -36.78125 L 14.640625 -45.515625 L 7.054688 -45.515625 L 7.054688 0 L 15.171875 0 L 15.171875 -24.875 C 15.523438 -34.136719 22.226562 -38.808594 28.226562 -38.808594 C 29.019531 -38.808594 29.902344 -38.808594 31.136719 -38.722656 L 31.136719 -46.574219 C 30.34375 -46.660156 29.550781 -46.75 28.667969 -46.75 Z M 28.667969 -46.75 "/></g></g></g><g fill="#5e17eb" fill-opacity="1"><g transform="translate(475.743696, 437.880507)"><g><path d="M 17.464844 0 L 17.464844 -8.910156 L 7.496094 -8.910156 L 7.496094 0 Z M 17.464844 0 "/></g></g></g><g fill="#5e17eb" fill-opacity="1"><g transform="translate(500.704382, 437.880507)"><g><path d="M 25.492188 1.148438 C 36.957031 1.148438 43.574219 -5.203125 45.160156 -15.878906 L 37.574219 -15.878906 C 36.339844 -9.4375 32.636719 -5.644531 25.933594 -5.644531 C 17.289062 -5.644531 12.523438 -11.996094 12.523438 -22.757812 C 12.523438 -33.519531 16.847656 -39.867188 26.019531 -39.867188 C 32.371094 -39.867188 36.253906 -36.78125 37.488281 -30.605469 L 45.160156 -30.605469 C 43.574219 -41.105469 36.429688 -46.660156 25.933594 -46.660156 C 12.789062 -46.660156 4.410156 -37.753906 4.410156 -22.402344 C 4.410156 -7.054688 12.789062 1.148438 25.492188 1.148438 Z M 25.492188 1.148438 "/></g></g></g><g fill="#5e17eb" fill-opacity="1"><g transform="translate(549.831961, 437.880507)"><g><path d="M 26.285156 1.148438 C 39.074219 1.148438 48.25 -8.820312 48.25 -23.109375 C 48.25 -37.574219 39.25 -46.660156 26.550781 -46.660156 C 13.496094 -46.660156 4.410156 -37.398438 4.410156 -22.757812 C 4.410156 -8.46875 13.230469 1.148438 26.285156 1.148438 Z M 26.285156 -5.644531 C 17.730469 -5.644531 12.523438 -12.4375 12.523438 -22.757812 C 12.523438 -33.078125 17.640625 -39.867188 26.285156 -39.867188 C 35.105469 -39.867188 40.132812 -33.429688 40.132812 -23.109375 C 40.132812 -12.789062 35.105469 -5.644531 26.285156 -5.644531 Z M 26.285156 -5.644531 "/></g></g></g><g fill="#5e17eb" fill-opacity="1"><g transform="translate(602.487548, 437.880507)"><g><path d="M 55.394531 -46.660156 C 48.777344 -46.660156 43.925781 -44.015625 40.925781 -38.722656 C 38.898438 -43.925781 34.488281 -46.660156 28.3125 -46.660156 C 22.050781 -46.660156 17.640625 -43.925781 14.640625 -39.074219 L 14.640625 -45.515625 L 7.054688 -45.515625 L 7.054688 0 L 15.171875 0 L 15.171875 -24.257812 C 15.171875 -35.988281 20.992188 -39.605469 26.285156 -39.605469 C 31.3125 -39.605469 34.136719 -36.429688 34.136719 -31.136719 L 34.136719 0 L 42.25 0 L 42.25 -24.699219 C 42.25 -36.429688 48.070312 -39.605469 53.363281 -39.605469 C 58.390625 -39.605469 61.214844 -36.429688 61.214844 -31.136719 L 61.214844 0 L 69.328125 0 L 69.328125 -31.226562 C 69.328125 -41.808594 64.300781 -46.660156 55.394531 -46.660156 Z M 55.394531 -46.660156 "/></g></g></g></svg>